<svg xmlns="http://www.w3.org/2000/svg" version="1.1" xmlns:xlink="http://www.w3.org/1999/xlink" width="400" height="117" viewBox="0 0 400 117"><svg xml:space="preserve" width="400" height="117" data-version="2" data-id="lg_G1Q6zS5aqUpg279Lx9" viewBox="0 0 457 117" x="0" y="0"><rect width="100%" height="100%" fill="transparent"></rect><path d="M34.668 97.321H4.718v-65.1h28.09q10.88 0 16.88 4.37 6 4.37 6 12.37 0 5.3-2.47 8.93-2.46 3.63-6.69 5.49-4.24 1.86-9.26 1.86l1.58-2.23q6.23 0 10.74 1.9 4.52 1.91 7.03 5.67 2.51 3.77 2.51 9.35 0 8.28-6.09 12.84-6.1 4.55-18.37 4.55m-23.07-59.42v53.75h22.97q8.56 0 13.12-2.93 4.56-2.93 4.56-9.35 0-6.32-4.56-9.25-4.56-2.93-13.12-2.93h-23.71v-5.67h21.48q7.81 0 12.14-2.98 4.32-2.97 4.32-8.83 0-5.96-4.32-8.89-4.33-2.92-12.14-2.92zm67.24 59.42h-6.6v-48.82h6.32v13.3l-.65-2.33q2.05-5.58 6.89-8.51 4.83-2.93 11.99-2.93v6.42q-.37 0-.74-.05-.37-.04-.75-.04-7.71 0-12.09 4.69-4.37 4.7-4.37 13.35zm36.09 0h-6.61v-48.82h6.61zm-3.26-59.61q-2.04 0-3.44-1.4-1.39-1.39-1.39-3.34 0-1.96 1.39-3.31 1.4-1.34 3.44-1.34 2.05 0 3.44 1.3 1.4 1.3 1.4 3.25 0 2.05-1.35 3.44-1.35 1.4-3.49 1.4m41.29 78.12q-6.69 0-12.83-1.95-6.14-1.96-9.95-5.58l3.35-5.03q3.44 3.07 8.51 4.89 5.06 1.81 10.74 1.81 9.3 0 13.67-4.32 4.37-4.33 4.37-13.44v-12.19l.93-8.37-.65-8.37v-14.78h6.32v42.87q0 12.65-6.18 18.55-6.19 5.91-18.28 5.91m-1.21-20.37q-6.97 0-12.55-3.02-5.58-3.02-8.79-8.42-3.21-5.39-3.21-12.37 0-6.97 3.21-12.32 3.21-5.35 8.79-8.32 5.58-2.98 12.55-2.98 6.51 0 11.72 2.7 5.21 2.7 8.28 8 3.07 5.3 3.07 12.92 0 7.63-3.07 12.93t-8.28 8.09q-5.21 2.79-11.72 2.79m.66-5.86q5.39 0 9.57-2.28 4.19-2.27 6.61-6.32 2.42-4.04 2.42-9.35 0-5.3-2.42-9.3-2.42-3.99-6.61-6.27-4.18-2.28-9.57-2.28-5.31 0-9.54 2.28-4.23 2.28-6.6 6.27-2.37 4-2.37 9.3 0 5.31 2.37 9.35 2.37 4.05 6.6 6.32 4.23 2.28 9.54 2.28m67.14-41.57q5.95 0 10.46 2.28 4.51 2.28 7.07 6.93 2.56 4.65 2.56 11.72v28.36h-6.6v-27.71q0-7.72-3.86-11.67-3.86-3.96-10.84-3.96-5.21 0-9.06 2.1-3.86 2.09-5.96 6.04-2.09 3.95-2.09 9.53v25.67h-6.6v-69h6.6v33.57l-1.3-2.51q2.32-5.3 7.44-8.33 5.11-3.02 12.18-3.02m52.17 49.76q-6.88 0-10.6-3.72-3.72-3.72-3.72-10.51v-45.85h6.61v45.48q0 4.27 2.18 6.6 2.19 2.32 6.28 2.32 4.37 0 7.25-2.51l2.33 4.75q-1.96 1.76-4.7 2.6-2.74.84-5.63.84m7.17-43.81h-30.23v-5.48h30.23z"></path><path fill="#39cccc" d="m445.066 2.065.142-.12-68.064-.778 6.981 5.246h61.177v53.06l6.981 5.904-.13-57.548-.059-5.824z"></path><path d="M339.998 97.321h-43.34v-65.1h6.88v59.15h36.46zm15.43 0h-6.6v-48.82h6.6zm-3.25-59.61q-2.05 0-3.44-1.4-1.4-1.39-1.4-3.34 0-1.96 1.4-3.31 1.39-1.34 3.44-1.34t3.44 1.3q1.4 1.3 1.4 3.25 0 2.05-1.35 3.44-1.35 1.4-3.49 1.4m28.18 59.61h-6.6v-54.96q0-6.51 3.81-10.51t10.97-4q2.79 0 5.4.75 2.6.74 4.37 2.32l-2.23 4.93q-1.4-1.21-3.26-1.81-1.86-.61-4-.61-4.18 0-6.42 2.33-2.23 2.32-2.23 6.88v7.44l.19 3.07zm14.88-43.34h-30.23v-5.48h30.23zm23.16 43.81q-6.89 0-10.61-3.72-3.72-3.72-3.72-10.51v-45.85h6.61v45.48q0 4.27 2.18 6.6 2.19 2.32 6.28 2.32 4.37 0 7.25-2.51l2.33 4.75q-1.95 1.76-4.7 2.6-2.74.84-5.62.84m7.16-43.81h-30.23v-5.48h30.23z"></path></svg></svg>